<svg width="158" height="144" viewBox="0 0 158 144" fill="none" xmlns="http://www.w3.org/2000/svg">
<path d="M78.9541 132.454C76.3359 132.459 73.7985 131.547 71.7824 129.877L4.54809 73.8482C2.2597 71.9461 0.82061 69.2129 0.547417 66.2498C0.274224 63.2867 1.18931 60.3365 3.09135 58.0481C4.99339 55.7597 7.7266 54.3206 10.6897 54.0474C13.6528 53.7742 16.603 54.6893 18.8914 56.5913L78.9541 106.793L139.017 58.3843C140.163 57.4535 141.482 56.7583 142.898 56.3389C144.313 55.9194 145.798 55.7839 147.266 55.9401C148.735 56.0963 150.157 56.5412 151.453 57.2491C152.749 57.957 153.892 58.914 154.817 60.0651C155.843 61.2173 156.62 62.569 157.1 64.0356C157.579 65.5021 157.751 67.0518 157.604 68.5877C157.456 70.1236 156.993 71.6126 156.244 72.9612C155.494 74.3099 154.475 75.4893 153.248 76.4255L86.0137 130.549C83.9397 131.956 81.4541 132.626 78.9541 132.454Z" fill="#04BEFE"/>
<path d="M78.9541 143.454C76.3359 143.459 73.7985 142.547 71.7824 140.877L4.54809 84.8482C2.2597 82.9461 0.82061 80.2129 0.547417 77.2498C0.274224 74.2867 1.18931 71.3365 3.09135 69.0481C4.99339 66.7597 7.7266 65.3206 10.6897 65.0474C13.6528 64.7742 16.603 65.6893 18.8914 67.5913L78.9541 117.793L139.017 69.3843C140.163 68.4535 141.482 67.7583 142.898 67.3389C144.313 66.9194 145.798 66.7839 147.266 66.9401C148.735 67.0963 150.157 67.5412 151.453 68.2491C152.749 68.957 153.892 69.914 154.817 71.0651C155.843 72.2173 156.62 73.569 157.1 75.0356C157.579 76.5021 157.751 78.0518 157.604 79.5877C157.456 81.1236 156.993 82.6126 156.244 83.9612C155.494 85.3099 154.475 86.4893 153.248 87.4255L86.0137 141.549C83.9397 142.956 81.4541 143.626 78.9541 143.454Z" fill="white"/>
<path d="M78.9541 78.4541C76.3359 78.4592 73.7985 77.5474 71.7824 75.8768L4.54809 19.8482C2.2597 17.9461 0.82061 15.2129 0.547417 12.2498C0.274224 9.28674 1.18931 6.33649 3.09135 4.04809C4.99339 1.75969 7.7266 0.32061 10.6897 0.0474172C13.6528 -0.225775 16.603 0.6893 18.8914 2.59134L78.9541 52.793L139.017 4.38427C140.163 3.45345 141.482 2.75834 142.898 2.33889C144.313 1.91944 145.798 1.78392 147.266 1.94012C148.735 2.09632 150.157 2.54115 151.453 3.24906C152.749 3.95697 153.892 4.914 154.817 6.06512C155.843 7.21731 156.62 8.56902 157.1 10.0356C157.579 11.5021 157.751 13.0518 157.604 14.5877C157.456 16.1236 156.993 17.6126 156.244 18.9612C155.494 20.3099 154.475 21.4893 153.248 22.4255L86.0137 76.5491C83.9397 77.9556 81.4541 78.6263 78.9541 78.4541Z" fill="#04BEFE"/>
<path d="M78.9541 89.4541C76.3359 89.4592 73.7985 88.5474 71.7824 86.8768L4.54809 30.8482C2.2597 28.9461 0.82061 26.2129 0.547417 23.2498C0.274224 20.2867 1.18931 17.3365 3.09135 15.0481C4.99339 12.7597 7.7266 11.3206 10.6897 11.0474C13.6528 10.7742 16.603 11.6893 18.8914 13.5913L78.9541 63.793L139.017 15.3843C140.163 14.4535 141.482 13.7583 142.898 13.3389C144.313 12.9194 145.798 12.7839 147.266 12.9401C148.735 13.0963 150.157 13.5412 151.453 14.2491C152.749 14.957 153.892 15.914 154.817 17.0651C155.843 18.2173 156.62 19.569 157.1 21.0356C157.579 22.5021 157.751 24.0518 157.604 25.5877C157.456 27.1236 156.993 28.6126 156.244 29.9612C155.494 31.3099 154.475 32.4893 153.248 33.4255L86.0137 87.5491C83.9397 88.9556 81.4541 89.6263 78.9541 89.4541Z" fill="white"/>
</svg>
