<svg width="68" height="67" viewBox="0 0 68 67" fill="none" xmlns="http://www.w3.org/2000/svg">
<path d="M57.1527 6.65854H50.4942V3.32927C50.4942 2.44629 50.1434 1.59948 49.5191 0.97512C48.8947 0.350761 48.0479 0 47.1649 0C46.2819 0 45.4351 0.350761 44.8108 0.97512C44.1864 1.59948 43.8356 2.44629 43.8356 3.32927V6.65854H23.86V3.32927C23.86 2.44629 23.5093 1.59948 22.8849 0.97512C22.2605 0.350761 21.4137 0 20.5308 0C19.6478 0 18.801 0.350761 18.1766 0.97512C17.5522 1.59948 17.2015 2.44629 17.2015 3.32927V6.65854H10.543C7.89402 6.65854 5.35358 7.71082 3.48051 9.5839C1.60743 11.457 0.555145 13.9974 0.555145 16.6463V56.5976C0.555145 59.2465 1.60743 61.7869 3.48051 63.66C5.35358 65.5331 7.89402 66.5854 10.543 66.5854H57.1527C59.8016 66.5854 62.3421 65.5331 64.2152 63.66C66.0882 61.7869 67.1405 59.2465 67.1405 56.5976V16.6463C67.1405 13.9974 66.0882 11.457 64.2152 9.5839C62.3421 7.71082 59.8016 6.65854 57.1527 6.65854ZM60.482 56.5976C60.482 57.4805 60.1312 58.3274 59.5069 58.9517C58.8825 59.5761 58.0357 59.9268 57.1527 59.9268H10.543C9.65997 59.9268 8.81316 59.5761 8.1888 58.9517C7.56444 58.3274 7.21368 57.4805 7.21368 56.5976V33.2927H60.482V56.5976ZM60.482 26.6341H7.21368V16.6463C7.21368 15.7634 7.56444 14.9166 8.1888 14.2922C8.81316 13.6678 9.65997 13.3171 10.543 13.3171H17.2015V16.6463C17.2015 17.5293 17.5522 18.3761 18.1766 19.0005C18.801 19.6248 19.6478 19.9756 20.5308 19.9756C21.4137 19.9756 22.2605 19.6248 22.8849 19.0005C23.5093 18.3761 23.86 17.5293 23.86 16.6463V13.3171H43.8356V16.6463C43.8356 17.5293 44.1864 18.3761 44.8108 19.0005C45.4351 19.6248 46.2819 19.9756 47.1649 19.9756C48.0479 19.9756 48.8947 19.6248 49.5191 19.0005C50.1434 18.3761 50.4942 17.5293 50.4942 16.6463V13.3171H57.1527C58.0357 13.3171 58.8825 13.6678 59.5069 14.2922C60.1312 14.9166 60.482 15.7634 60.482 16.6463V26.6341Z" fill="white"/>
</svg>
