<svg width="498" height="242" viewBox="0 0 498 242" fill="none" xmlns="http://www.w3.org/2000/svg">
<g clip-path="url(#clip0_10_133)">
<path d="M128.978 242L104.163 204.128L125.426 103.337H46.528L24.8149 204.478L0 166.706L35.4714 0H68.3412L53.2821 71.4025L46.528 103.287L75.9958 71.4025H132.23L147.239 0H180.108L128.978 242Z" fill="#04BEFE"/>
<path d="M250.401 154.082V116.609H199.57V154.082H172.554V103.636L225.736 50.5955H277.317V154.082H250.401ZM250.401 77.5897H236.843L224.685 89.7146H250.401V77.5897Z" fill="white"/>
<path d="M378.628 77.5398H318.592V127.237H379.879V154.032H291.726V50.5955H378.778V77.5897" fill="white"/>
<path d="M470.984 154.082V116.609H419.953V154.082H392.937V50.5955H419.953V89.6647H435.262L473.285 50.5955H498V77.5398H484.392L471.834 90.2136L498 115.412V154.032H470.984V154.082Z" fill="white"/>
<path d="M178.558 183.221C178.658 183.92 178.958 184.519 179.308 184.968C179.708 185.417 180.159 185.716 180.709 185.916C181.259 186.115 181.86 186.215 182.56 186.215C183.711 186.215 184.611 185.966 185.262 185.467C185.912 184.968 186.212 184.369 186.212 183.571C186.212 182.972 186.012 182.473 185.662 182.074C185.312 181.675 184.761 181.375 184.061 181.126C183.36 180.876 182.61 180.627 181.709 180.327C180.709 180.078 179.708 179.729 178.708 179.379C177.707 179.03 176.756 178.581 175.906 177.982C175.055 177.433 174.355 176.685 173.805 175.837C173.254 174.988 173.054 173.841 173.054 172.494C173.054 170.847 173.454 169.5 174.305 168.352C175.156 167.205 176.306 166.356 177.707 165.758C179.108 165.159 180.809 164.909 182.66 164.909C184.361 164.909 185.862 165.159 187.163 165.658C188.464 166.157 189.564 166.855 190.415 167.803C191.265 168.751 191.866 169.949 192.216 171.346L186.262 172.394C186.162 171.845 185.962 171.396 185.612 171.047C185.262 170.697 184.861 170.448 184.361 170.298C183.861 170.148 183.41 170.049 182.91 170.049C182.31 170.049 181.759 170.148 181.259 170.348C180.759 170.548 180.359 170.847 180.058 171.196C179.758 171.546 179.608 171.995 179.608 172.494C179.608 173.043 179.808 173.492 180.159 173.841C180.509 174.19 181.009 174.49 181.609 174.789C182.21 175.088 182.91 175.338 183.661 175.587C184.661 175.887 185.712 176.236 186.762 176.635C187.813 177.034 188.814 177.483 189.714 178.082C190.615 178.681 191.365 179.379 191.916 180.327C192.466 181.226 192.766 182.373 192.766 183.72C192.766 185.167 192.416 186.465 191.665 187.662C190.965 188.81 189.864 189.758 188.414 190.457C186.963 191.155 185.162 191.504 182.96 191.504C181.109 191.504 179.458 191.255 177.957 190.706C176.456 190.157 175.256 189.409 174.355 188.361C173.454 187.313 172.804 186.066 172.504 184.569L178.558 183.221Z" fill="white"/>
<path d="M247.299 165.159H269.913V170.548H261.808V191.105H255.354V170.598H247.299V165.159Z" fill="white"/>
<path d="M339.705 165.159H329.448L319.943 191.105H326.647L328.448 185.916H340.605L342.456 191.105H349.16L339.705 165.159ZM330.349 180.527L333.851 170.598H335.152L338.704 180.527H330.349Z" fill="white"/>
<path d="M415.6 181.425C415.634 181.425 415.667 181.409 415.7 181.375C416.901 180.876 417.902 180.228 418.702 179.429C419.503 178.631 420.053 177.683 420.453 176.685C420.854 175.687 421.054 174.639 421.054 173.591C421.054 172.094 420.703 170.697 420.003 169.4C419.303 168.103 418.252 167.105 416.801 166.306C415.35 165.508 413.599 165.159 411.448 165.159H399.491V191.105H405.945V182.124H409.247L414.45 191.105H421.604L415.6 181.425ZM405.895 170.598H410.998C412.148 170.598 413.049 170.847 413.599 171.396C414.149 171.945 414.45 172.693 414.45 173.641C414.45 174.29 414.3 174.839 414.049 175.288C413.799 175.737 413.399 176.086 412.899 176.336C412.398 176.585 411.748 176.685 410.998 176.685H405.895V170.598Z" fill="white"/>
<path d="M475.086 165.159H497.7V170.548H489.595V191.105H483.141V170.598H475.086V165.159Z" fill="white"/>
</g>
<defs>
<clipPath id="clip0_10_133">
<rect width="498" height="242" fill="white"/>
</clipPath>
</defs>
</svg>
