<svg width="55" height="67" viewBox="0 0 55 67" fill="none" xmlns="http://www.w3.org/2000/svg">
<path fill-rule="evenodd" clip-rule="evenodd" d="M6.53195 25.8434C6.53195 15.4869 15.6361 6.08081 27.7048 6.08081C39.7736 6.08081 48.8776 15.4869 48.8776 25.8434C48.8776 32.3648 44.9083 39.6487 39.6844 46.3999C35.556 51.7355 30.9633 56.3475 27.7048 59.5749C24.4463 56.3475 19.8535 51.7355 15.725 46.3999C10.5012 39.6487 6.53195 32.3648 6.53195 25.8434ZM27.7048 0C12.5513 0 0.482574 11.8767 0.482574 25.8434C0.482574 34.5241 5.58737 43.2023 10.95 50.1329C15.5905 56.1304 20.8067 61.2866 24.067 64.5091C24.629 65.0649 25.1332 65.5633 25.566 65.9983C26.1332 66.5684 26.9026 66.8889 27.7048 66.8889C28.5069 66.8889 29.2764 66.5684 29.8435 65.9983C30.2764 65.5633 30.7806 65.0649 31.3426 64.5094C34.6026 61.2866 39.819 56.1304 44.4598 50.1329C49.8222 43.2023 54.927 34.5241 54.927 25.8434C54.927 11.8767 42.8582 0 27.7048 0ZM27.7048 34.9646C31.881 34.9646 35.2665 31.5615 35.2665 27.3636C35.2665 23.1657 31.881 19.7626 27.7048 19.7626C23.5286 19.7626 20.1431 23.1657 20.1431 27.3636C20.1431 31.5615 23.5286 34.9646 27.7048 34.9646Z" fill="white"/>
</svg>
