<svg width="395" height="1112" viewBox="0 0 395 1112" fill="none" xmlns="http://www.w3.org/2000/svg">
<path d="M404.396 258.844L0.334503 380.213L409.571 292.819L404.396 258.844Z" fill="white"/>
<path d="M404.396 600.094C402.517 600.094 204.957 591.641 204.957 591.641L404.396 623.593L404.396 600.103L404.396 600.094Z" fill="white"/>
<path d="M404.396 757.958L82.5112 656.177L404.396 772.995L404.396 757.958Z" fill="white"/>
<path d="M419.382 1003.45L146.799 827.737L416.965 1026.95L419.382 1003.45Z" fill="white"/>
<path d="M425 879.729L42.6012 701.278L425 851.244L425 879.729Z" fill="#04BEFE"/>
<path d="M416.7 361.257L135.81 418.441C135.81 418.441 412.687 395.361 416.7 389.845C420.714 384.329 416.7 361.257 416.7 361.257Z" fill="#04BEFE"/>
<path d="M412.884 -88L72.7344 211.727L418.485 -68.2841L412.884 -88Z" fill="#04BEFE"/>
<path d="M418.485 -32.7885L13.578 274.828L418.485 7.63388L418.485 -32.7885Z" fill="#04BEFE"/>
<path d="M418.485 683.014L63.8541 610.059L418.485 701.278L418.485 683.014Z" fill="#04BEFE"/>
<path d="M421.354 724.427L193.353 660.335L418.485 733.298L421.354 724.427Z" fill="#04BEFE"/>
<path d="M418.485 193.983L135.708 300.47L418.485 206.8L418.485 193.983Z" fill="#04BEFE"/>
<path d="M410.467 101.304L216.031 201.873L411.449 114.12L410.467 101.304Z" fill="#04BEFE"/>
<path d="M413.874 947.254L207.604 831.895L413.874 958.098L413.874 947.254Z" fill="#04BEFE"/>
</svg>
