<svg width="395" height="1112" viewBox="0 0 395 1112" fill="none" xmlns="http://www.w3.org/2000/svg">
<path d="M-9.39603 258.843L394.666 380.213L-14.5705 292.819L-9.39603 258.843Z" fill="white"/>
<path d="M-9.39594 600.094C-7.51741 600.094 190.043 591.641 190.043 591.641L-9.39594 623.593L-9.39594 600.103L-9.39594 600.094Z" fill="white"/>
<path d="M-9.39594 757.958L312.489 656.177L-9.39594 772.995L-9.39594 757.958Z" fill="white"/>
<path d="M-24.3815 1003.45L248.201 827.737L-21.965 1026.95L-24.3815 1003.45Z" fill="white"/>
<path d="M-29.9999 879.729L352.399 701.278L-29.9999 851.244L-29.9999 879.729Z" fill="#04BEFE"/>
<path d="M-21.7003 361.257L259.19 418.441C259.19 418.441 -17.6871 395.361 -21.7003 389.845C-25.7135 384.329 -21.7003 361.257 -21.7003 361.257Z" fill="#04BEFE"/>
<path d="M-17.8835 -88.0001L322.266 211.727L-23.4849 -68.2842L-17.8835 -88.0001Z" fill="#04BEFE"/>
<path d="M-23.4849 -32.7885L381.422 274.828L-23.4849 7.63383L-23.4849 -32.7885Z" fill="#04BEFE"/>
<path d="M-23.4849 683.014L331.146 610.059L-23.4849 701.278L-23.4849 683.014Z" fill="#04BEFE"/>
<path d="M-26.3539 724.427L201.647 660.335L-23.4849 733.298L-26.3539 724.427Z" fill="#04BEFE"/>
<path d="M-23.4849 193.983L259.292 300.47L-23.4849 206.8L-23.4849 193.983Z" fill="#04BEFE"/>
<path d="M-15.467 101.304L178.969 201.873L-16.449 114.12L-15.467 101.304Z" fill="#04BEFE"/>
<path d="M-18.874 947.254L187.396 831.895L-18.874 958.098L-18.874 947.254Z" fill="#04BEFE"/>
</svg>
